<?xml version="1.0" encoding="utf-8"?>
<!-- Generated by IcoMoon.io -->
<!DOCTYPE svg PUBLIC "-//W3C//DTD SVG 1.1//EN" "http://www.w3.org/Graphics/SVG/1.1/DTD/svg11.dtd">
<svg version="1.1" xmlns="http://www.w3.org/2000/svg" xmlns:xlink="http://www.w3.org/1999/xlink" width="50" height="45" viewBox="0 0 512 512">
<g>
</g>
	<path d="M411.33 187.259l81.49 56.002 5.079-10.189z" fill="#000000" />
	<path d="M482.642 161.792v-10.189l-66.222 15.268z" fill="#000000" />
	<path d="M304.425 70.134l-10.23 10.178 66.181 66.192z" fill="#000000" />
	<path d="M462.264 70.134l-56.034 76.37 66.233-66.192z" fill="#000000" />
	<path d="M345.129 294.195l25.447-91.678-40.724 86.579z" fill="#000000" />
	<path d="M380.764 141.394l10.178-71.26h-15.257z" fill="#000000" />
	<path d="M411.33 268.738h10.178l-25.457-66.222z" fill="#000000" />
	<path d="M375.685 171.97h-5.099c-10.178 5.1-15.257 10.179-25.436 10.179-15.278 0-40.724-15.268-71.301-40.745l-15.268-10.158c-30.566-25.467-50.934-40.755-76.4-40.755-15.268 0-25.477 5.1-35.645 20.388-10.178 10.178-15.268 20.368-15.268 40.745v5.048c-15.288 0-25.436 5.12-30.576 5.12v35.645c-55.992 25.446-86.558 61.112-86.558 117.095 0 35.676 15.278 66.233 35.645 91.699 25.457 20.357 56.054 35.625 91.658 35.625 35.645 0 66.222-15.257 86.579-35.625 25.457-25.467 40.745-56.023 40.745-91.699 0-55.982-30.587-96.738-86.579-117.094v-35.645c-10.199 0-20.368-5.12-30.566-5.12 0-30.515 10.199-40.714 30.566-40.714 15.278 0 35.656 10.189 61.092 30.535l15.288 10.178c35.635 30.577 61.082 45.844 86.569 45.844 10.178 0 20.347 0 30.546-5.069 5.079-5.11 10.199-10.189 10.199-15.298 0.010-10.179 0.010-10.179-10.189-10.179zM109.671 420.403c-83.569-48.384-69.181-130.447-49.9-167.076l26.020 11.090c0 0-0.348 1.065-0.368 1.096l-0.512 1.003c-1.731 3.338-41.646 82.637 38.994 129.341l-14.234 24.546z" fill="#000000" />
</svg>
